PathFileType	4	(X/Y/Z)	C:\Users\WrightLab\Desktop\Jo\P1.2Trial4.trc
DataRate	CameraRate	NumFrames	NumMarkers	Units	OrigDataRate	OrigDataStartFrame	OrigNumFrames
100.00	100.00	       23	19	mm	100.00	460	       525
Frame#	Time	Headset_Front			Headset_Back			Headset_Left			Headset_Right			Left_Shoulder			Right_Shoulder			Sternum			C7			Left Elbow			Right Elbow			Left Wrist			Right Wrist			Left ASIS			Right ASIS			S2			Left Knee			Right Knee			Left Ankle			Right Ankle			
		X1	Y1	Z1	X2	Y2	Z2	X3	Y3	Z3	X4	Y4	Z4	X5	Y5	Z5	X6	Y6	Z6	X7	Y7	Z7	X8	Y8	Z8	X9	Y9	Z9	X10	Y10	Z10	X11	Y11	Z11	X12	Y12	Z12	X13	Y13	Z13	X14	Y14	Z14	X15	Y15	Z15	X16	Y16	Z16	X17	Y17	Z17	X18	Y18	Z18	X19	Y19	Z19	

460	4.590	-131.79005	1536.97681	2112.13379				-246.24055	1505.36230	2230.04028				-131.27205	1298.35889	2323.73853	-221.73657	1203.32532	1764.96289	-327.46106	1224.73291	2187.59766				-80.52576	1034.74866	2444.05884				-197.56929	854.43103	2563.14795	-374.33688	783.76892	1820.05994	-249.09584	925.55402	2321.00195				-53.40469	943.42682	2061.70044	-168.71474	479.23984	2333.99878	-393.59097	484.41165	2161.09766	-0.90288	156.06036	2243.99976				
461	4.600	-134.38687	1535.70496	2114.32788				-251.55452	1505.02856	2232.45190				-135.92731	1297.19153	2325.96021	-225.79822	1201.52356	1765.89917	-332.82867	1225.34827	2189.44458				-88.94051	1032.65076	2446.87891				-209.52759	854.63428	2565.17212	-375.91153	781.83606	1820.91052	-256.51379	925.41144	2324.56274				-59.53138	940.73755	2066.80225	-174.45122	480.20428	2340.86938	-400.45792	483.09552	2164.30518	-2.14076	159.49184	2247.49609				
462	4.610	-137.79276	1535.64148	2116.80444				-256.94839	1505.40820	2234.50513				-140.59056	1295.77563	2327.13721	-230.09036	1201.73401	1769.45898	-337.70816	1225.77649	2190.16772				-97.52542	1030.80225	2449.66504				-221.49567	854.50519	2568.04077	-377.88855	779.16620	1825.75220	-264.15695	926.23212	2327.82544	-392.31689	896.28693	2087.12402	-65.70058	938.44348	2070.46655	-180.43535	479.92496	2346.09961	-406.26816	482.16473	2166.31079	-4.36721	163.29256	2251.52686				
463	4.620	-141.40987	1535.77100	2120.37378				-261.49347	1505.25146	2235.10767				-145.31059	1295.18811	2329.53516	-235.32983	1201.48792	1772.25549	-342.56595	1226.19470	2190.77930				-105.32514	1030.00964	2451.36523				-232.17995	854.58887	2568.66406	-379.61160	777.61505	1829.61560	-272.27740	927.22430	2331.98022	-396.97351	896.64764	2088.47656	-71.93304	937.36298	2073.41724	-187.94528	481.53412	2353.62427	-411.72040	481.05801	2169.14038	-7.23219	165.92126	2254.84595				
464	4.630	-144.60951	1534.64612	2123.21045				-266.76343	1505.71204	2236.62427				-149.95084	1295.19202	2331.21851	-239.46121	1201.64612	1774.76550	-348.36560	1227.53247	2193.19629				-113.11359	1028.38159	2452.52759				-243.24936	855.67499	2570.03589	-381.64435	775.80164	1833.68896	-279.27884	928.39325	2333.38721	-402.06653	897.33270	2091.04614	-78.22778	936.55627	2076.84229	-197.14038	482.57913	2359.92554	-416.94891	480.87192	2170.30640	-11.09911	168.98177	2257.60327				
465	4.640	-147.76129	1534.27722	2126.06201				-272.07895	1505.73315	2238.39746				-155.13033	1294.97778	2332.93823	-243.71182	1202.16187	1777.43347	-352.66550	1228.37720	2192.94507				-121.49674	1027.76184	2452.78467				-253.24716	856.24384	2570.30542	-383.88937	774.51447	1839.02197	-287.22726	929.94928	2335.59497	-406.93515	898.24139	2092.31104	-84.00592	936.69434	2080.97437	-207.84950	485.06943	2369.02393	-421.61575	480.46078	2171.64136	-15.45946	174.97272	2264.02588				
466	4.650	-150.83466	1533.60352	2129.27026	-321.21912	1099.94690	1559.88098							-160.77028	1295.74219	2335.53491				-357.96045	1229.54529	2194.85889				-129.24139	1026.78894	2453.25244				-263.09833	857.24463	2570.76929	-386.23434	773.94647	1841.88135	-294.30026	931.13489	2336.88599	-412.01147	899.42169	2092.93335	-89.43034	936.80469	2084.89502	-220.86578	486.97913	2381.67090	-424.99475	480.68124	2171.12622	-21.50770	180.51613	2269.52173				
467	4.660	-154.14026	1531.86792	2131.40771	-324.86752	1099.94409	1562.90649							-165.93617	1295.85071	2337.54443										-136.95059	1025.61572	2452.07104				-272.20587	857.80237	2570.02271	-389.41620	775.30328	1845.50562	-301.70297	932.62982	2338.54785	-416.53918	900.69244	2093.59082	-94.79999	937.34808	2086.70996	-235.37593	489.79254	2395.93945	-428.04062	481.16248	2170.90967	-27.62436	186.54506	2277.05371				
468	4.670	-157.39130	1531.29236	2134.09424	-328.28528	1099.75891	1567.47021							-171.66135	1296.33679	2340.48560										-143.92679	1024.61133	2451.24609				-281.06406	858.24872	2568.66406	-392.84937	775.16266	1850.77881	-308.23477	933.57605	2339.81201	-421.23657	901.48877	2093.59155	-99.23656	937.42273	2090.27075	-250.55823	490.12708	2407.68384	-430.76285	482.38077	2169.05371	-35.47192	192.92091	2283.38599				
469	4.680	-160.09570	1530.12061	2137.36230	-332.41006	1099.83850	1571.00061							-177.29752	1296.49060	2342.21045	-372.26529	1234.22144	2199.69531							-151.25378	1023.20288	2450.02881				-290.49576	859.07629	2568.02734	-396.43524	776.76215	1851.37415	-314.98672	934.82135	2341.19043	-425.29135	902.69849	2093.67310	-103.49933	937.75842	2094.82983	-267.36945	492.42715	2419.30591	-432.98618	483.28986	2166.94653	-44.78207	200.70586	2291.69189				
470	4.690	-163.63916	1529.94580	2140.67700	-335.25507	1099.37769	1575.34460							-183.36877	1296.58911	2345.19727	-376.61099	1234.06421	2199.60840							-157.42249	1021.83441	2449.05591				-298.52768	858.75787	2565.18359	-400.44861	778.45282	1852.48462	-321.98914	934.97162	2342.44995	-429.52988	903.34137	2092.93042	-107.42837	937.63245	2099.31763	-284.08002	494.12982	2427.66504	-434.15341	483.62329	2164.70850	-55.59790	205.51480	2297.07544				
471	4.700	-167.19162	1529.10718	2144.33667	-338.35641	1098.87805	1579.81079							-189.32993	1296.92786	2348.24707	-380.57666	1234.14539	2199.59644							-163.18324	1020.46045	2447.48364				-307.30484	858.73859	2563.70459	-404.83289	777.34784	1857.82288	-328.70840	935.35016	2342.88818	-433.99774	903.86115	2092.03711	-110.73580	937.63416	2103.73511	-300.69989	496.31732	2434.99341	-435.99542	483.50162	2162.65894	-65.74343	212.71066	2304.99023				
472	4.710	-170.60841	1528.75391	2148.37744										-195.00018	1296.69861	2351.33862	-384.97543	1234.40125	2200.52197							-169.32574	1018.46759	2446.44043				-316.23520	865.58032	2569.41309	-410.00043	776.78778	1864.54370	-335.53284	935.16058	2343.17236	-438.36877	904.05286	2090.77856	-114.30257	937.26074	2107.50244	-316.70917	499.71683	2441.31689	-437.79822	483.24936	2160.53418	-76.08548	219.57964	2312.02026				
473	4.720	-174.06815	1528.80420	2151.83374										-200.99550	1296.07849	2354.41089	-389.05609	1234.39917	2200.69556							-174.45021	1015.98834	2443.99121				-319.62115	866.54156	2571.39331	-415.51456	777.25653	1867.48010	-341.93576	933.89600	2343.68286	-441.92365	904.28955	2089.75684	-117.37181	937.06323	2111.18481	-332.23547	502.79672	2447.84766	-438.56314	481.79074	2156.71387	-87.72379	227.73921	2320.42554				
474	4.730	-177.99686	1527.98120	2156.31641										-207.29620	1295.41980	2357.48608	-393.43240	1234.12329	2201.34619							-180.79361	1014.17615	2443.72681				-323.55441	866.67072	2572.40894	-421.09869	777.09241	1871.16577	-348.73438	933.84302	2345.09668	-445.35181	904.51099	2089.11450	-119.80033	937.11438	2114.42554	-348.16074	506.03949	2452.55225	-439.10187	480.56384	2152.80713	-98.51372	233.56891	2327.44678				
475	4.740													-213.58543	1294.90576	2360.07129	-397.87799	1234.01819	2202.20166							-186.35127	1011.50195	2440.78540				-327.01642	866.88580	2573.73950	-427.10989	777.09088	1875.13892	-355.99915	932.87396	2345.49512	-449.15286	904.37195	2088.08276	-122.08107	937.10474	2117.46338	-365.21915	508.38110	2455.98193	-439.38620	479.97186	2148.57935	-109.64447	239.10341	2334.77563				
476	4.750													-220.59430	1294.17407	2363.66602	-402.60834	1233.71631	2203.09448							-192.94119	1009.31073	2439.67505				-330.67654	866.93909	2575.73193	-433.33408	777.62128	1877.36670	-362.76770	931.10101	2345.04785	-451.93152	904.58881	2085.98242	-123.91550	937.59021	2121.12109	-382.13641	510.16608	2455.77246	-439.30188	478.13922	2142.28345	-120.77470	244.12581	2342.83911				
477	4.760													-227.75034	1293.51477	2366.93579	-407.28967	1233.36365	2203.78613							-199.16092	1007.91089	2439.42578				-333.19247	866.89410	2578.54883	-439.21439	776.53760	1883.92102	-369.50897	929.60394	2345.63379	-455.25137	904.54681	2084.38062	-125.95974	938.17303	2124.53174	-398.78818	511.22510	2452.97925	-439.23996	477.76752	2139.44824	-132.59271	248.17909	2352.33154				
478	4.770	-193.88214	1526.80505	2173.99365	-182.03258	1341.25781	2137.20752							-234.95227	1293.09558	2370.07153	-411.74658	1233.01587	2204.05518							-205.61398	1006.21655	2438.13110				-335.79120	866.89471	2581.38354	-444.95615	777.72150	1884.47778	-376.71689	928.03345	2345.72583	-457.84512	904.39130	2082.71289	-128.17599	938.53082	2128.76025	-412.95679	514.41180	2452.84814	-438.41379	475.83704	2136.33203	-144.17867	248.62968	2360.23047				
479	4.780	-198.66180	1526.68188	2179.97363	-185.27420	1341.28821	2140.42651							-242.50833	1292.16736	2373.85596	-416.56845	1232.70764	2204.36621							-212.56976	1004.60046	2438.61279							-450.67770	777.19434	1890.82031	-384.12439	927.06378	2345.66406	-460.20224	904.57373	2080.27271	-130.18164	939.11328	2134.97852	-426.04837	517.05841	2451.80396	-437.64807	473.99530	2132.33667	-156.72899	249.26950	2368.44849				
480	4.790	-203.62837	1526.34619	2184.76514	-188.86382	1341.25574	2144.79663							-250.27988	1291.58484	2376.72119	-421.08450	1232.37219	2204.43628							-219.98691	1003.75769	2440.44971							-456.44653	778.97693	1894.25122	-391.05811	925.53784	2346.37280	-462.36981	904.87030	2077.33594	-132.61028	940.04572	2139.24707	-438.48639	519.00421	2451.81494	-436.48108	472.49133	2130.35498	-169.87445	248.35474	2377.63843				
481	4.800	-208.42586	1526.23877	2189.86157	-192.40625	1341.19250	2148.74268							-258.33267	1290.83716	2379.82153	-425.50516	1232.15527	2203.96411							-226.93356	1002.78430	2441.52002							-461.58823	779.68768	1896.42480				-464.36575	904.81165	2075.27783	-135.52643	940.49866	2143.68237	-452.00177	519.95233	2448.46875	-434.70239	470.72662	2124.34546	-184.29210	248.22284	2387.84839				
482	4.810	-213.72673	1526.35913	2195.52271	-196.00514	1341.50574	2151.61011							-266.70370	1290.42163	2382.52637	-429.92282	1231.83105	2203.33496							-234.95940	1001.80975	2442.93140							-466.93747	781.29370	1903.74475				-465.73999	904.90649	2071.93530	-137.84521	940.92859	2149.54297	-465.90207	522.25671	2445.91870	-433.91821	468.48962	2123.10254	-198.44867	246.28075	2395.92236				
